<svg width="299" height="35" viewBox="0 0 299 35" xmlns="http://www.w3.org/2000/svg"><title>Footprints-Logo-color</title><desc>Created with Sketch.</desc><g fill="#21C1E0"><path d="M23.268 1.699c.245.387.465.905.659 1.555.192.65.29 1.326.29 2.028 0 1.371-.29 2.345-.87 2.925-.579.58-1.362.87-2.345.87h-11.067v5.955h11.541c.281.387.518.896.712 1.528.192.632.29 1.3.29 2.002 0 1.336-.29 2.293-.87 2.872-.58.58-1.362.87-2.345.87h-9.222v11.12c-.387.105-.993.21-1.818.316-.826.105-1.643.158-2.451.158s-1.52-.062-2.134-.185c-.615-.122-1.133-.342-1.555-.658-.421-.317-.737-.756-.948-1.318-.211-.562-.316-1.299-.316-2.213v-22.924c0-1.51.438-2.705 1.317-3.583.878-.878 2.073-1.318 3.583-1.318h17.549z"/><path d="M36.443 17.613c0 3.197.65 5.586 1.95 7.167 1.299 1.581 3.038 2.371 5.217 2.371 2.213 0 3.97-.79 5.27-2.371 1.299-1.581 1.95-3.97 1.95-7.167 0-3.162-.642-5.533-1.924-7.114-1.283-1.581-3.03-2.372-5.243-2.372-2.179 0-3.926.783-5.244 2.346-1.317 1.563-1.976 3.944-1.976 7.14m-9.485 0c0-2.74.429-5.164 1.291-7.272.86-2.108 2.037-3.874 3.53-5.296 1.493-1.423 3.25-2.504 5.27-3.241 2.02-.738 4.207-1.107 6.561-1.107 2.353 0 4.54.369 6.561 1.107 2.02.737 3.785 1.818 5.296 3.241 1.51 1.422 2.696 3.188 3.557 5.296.861 2.108 1.291 4.532 1.291 7.272s-.421 5.174-1.264 7.299c-.844 2.126-2.012 3.9-3.505 5.322-1.494 1.423-3.259 2.503-5.296 3.241-2.038.738-4.251 1.107-6.64 1.107-2.389 0-4.603-.378-6.64-1.133-2.038-.755-3.794-1.853-5.27-3.294-1.475-1.44-2.635-3.214-3.478-5.322-.843-2.108-1.264-4.514-1.264-7.22"/><path d="M73.489 17.613c0 3.197.65 5.586 1.95 7.167 1.299 1.581 3.038 2.371 5.217 2.371 2.213 0 3.97-.79 5.27-2.371 1.299-1.581 1.95-3.97 1.95-7.167 0-3.162-.642-5.533-1.924-7.114-1.283-1.581-3.03-2.372-5.243-2.372-2.179 0-3.926.783-5.244 2.346-1.317 1.563-1.976 3.944-1.976 7.14m-9.485 0c0-2.74.429-5.164 1.291-7.272.86-2.108 2.037-3.874 3.53-5.296 1.493-1.423 3.25-2.504 5.27-3.241 2.02-.738 4.207-1.107 6.561-1.107 2.353 0 4.54.369 6.561 1.107 2.02.737 3.785 1.818 5.296 3.241 1.51 1.422 2.696 3.188 3.557 5.296.861 2.108 1.291 4.532 1.291 7.272s-.421 5.174-1.264 7.299c-.844 2.126-2.012 3.9-3.505 5.322-1.494 1.423-3.259 2.503-5.296 3.241-2.038.738-4.251 1.107-6.64 1.107-2.389 0-4.603-.378-6.64-1.133-2.038-.755-3.794-1.853-5.27-3.294-1.475-1.44-2.635-3.214-3.478-5.322-.843-2.108-1.264-4.514-1.264-7.22"/><path d="M100.207 9.077c-.246-.386-.474-.913-.685-1.581-.211-.667-.316-1.37-.316-2.108 0-1.37.307-2.353.922-2.951.614-.597 1.414-.896 2.398-.896h22.976c.246.387.475.914.685 1.581.211.668.317 1.37.317 2.108 0 1.37-.309 2.354-.923 2.951-.615.598-1.414.896-2.398.896h-5.849v24.347c-.387.105-.993.21-1.818.316-.826.105-1.643.158-2.451.158s-1.52-.062-2.134-.185c-.615-.122-1.133-.342-1.555-.658-.421-.317-.737-.755-.948-1.318-.211-.561-.316-1.299-.316-2.213v-20.447h-7.905z"/><path d="M142.945 16.507c1.476 0 2.609-.342 3.399-1.027.791-.686 1.186-1.731 1.186-3.136 0-1.335-.413-2.363-1.239-3.083-.825-.72-2.028-1.08-3.609-1.08-.563 0-1.028.009-1.397.026-.369.018-.747.062-1.133.132v8.168h2.793zm-2.74 16.916c-.387.106-.993.211-1.818.316-.826.106-1.643.159-2.451.159s-1.52-.062-2.134-.185c-.615-.123-1.133-.343-1.555-.659-.421-.316-.737-.755-.948-1.317-.211-.562-.316-1.299-.316-2.213v-24.821c0-.738.201-1.309.605-1.713.404-.404.958-.729 1.661-.975 1.193-.421 2.556-.729 4.084-.922 1.528-.193 3.064-.29 4.611-.29 4.848 0 8.554 1.037 11.119 3.109 2.564 2.074 3.847 4.884 3.847 8.432 0 1.722-.272 3.276-.817 4.664-.545 1.388-1.352 2.582-2.424 3.583-1.072 1.002-2.424 1.775-4.058 2.319-1.633.545-3.522.817-5.665.817h-3.741v9.696z"/><path d="M174.09 16.296c1.335 0 2.389-.342 3.162-1.028.772-.685 1.159-1.694 1.159-3.03 0-1.335-.43-2.345-1.291-3.03-.861-.685-2.222-1.028-4.084-1.028-.527 0-.949.019-1.265.053-.316.036-.667.088-1.053.158v7.905h3.372zm-3.32 7.009v10.118c-.387.105-.993.211-1.818.316-.826.105-1.643.158-2.451.158s-1.519-.062-2.134-.184c-.615-.123-1.125-.343-1.528-.659-.404-.316-.711-.755-.922-1.318-.211-.561-.316-1.299-.316-2.213v-24.821c0-.738.201-1.308.606-1.712.403-.404.957-.729 1.66-.975 1.193-.422 2.582-.729 4.163-.923 1.581-.192 3.267-.289 5.059-.289 4.848 0 8.502 1.019 10.961 3.056 2.459 2.038 3.689 4.796 3.689 8.274 0 2.179-.562 4.04-1.686 5.586-1.125 1.546-2.46 2.74-4.005 3.583 1.264 1.722 2.511 3.338 3.741 4.848 1.229 1.512 2.195 2.882 2.899 4.111-.352 1.23-.993 2.17-1.924 2.819-.931.65-1.976.975-3.136.975-.773 0-1.441-.088-2.002-.263-.562-.175-1.054-.422-1.476-.738-.421-.316-.808-.702-1.159-1.159-.351-.456-.685-.949-1.001-1.476l-4.427-7.114h-2.793z"/><path d="M202.916 33.423c-.387.105-.993.211-1.818.316-.826.105-1.643.158-2.45.158-.809 0-1.521-.062-2.135-.184-.615-.123-1.133-.343-1.555-.659-.421-.316-.737-.755-.948-1.318-.211-.561-.316-1.299-.316-2.213v-27.825c.386-.07 1.001-.166 1.844-.289.843-.123 1.651-.185 2.424-.185.808 0 1.519.062 2.135.185.614.123 1.133.342 1.554.658.422.316.738.756.949 1.318.211.562.316 1.3.316 2.213v27.825z"/><path d="M238.697 32.527c-.492.492-1.204.869-2.134 1.133-.932.263-2.047.395-3.347.395-1.3 0-2.529-.193-3.688-.579-1.16-.387-2.108-1.318-2.846-2.794l-5.217-10.645c-.527-1.088-1.002-2.116-1.423-3.082-.422-.966-.879-2.082-1.371-3.347l-.316.053c.14 1.897.219 3.83.238 5.797.017 1.968.026 3.9.026 5.796v8.169c-.387.105-.975.211-1.766.316-.79.105-1.572.158-2.345.158-.773 0-1.458-.053-2.055-.158-.598-.105-1.089-.316-1.475-.632-.387-.317-.685-.746-.896-1.291-.211-.545-.316-1.256-.316-2.135v-26.349c.491-.702 1.246-1.229 2.266-1.581 1.018-.351 2.107-.527 3.267-.527 1.299 0 2.538.203 3.715.606 1.177.404 2.116 1.327 2.82 2.767l5.269 10.645c.527 1.089 1.002 2.117 1.423 3.083.422.966.878 2.081 1.37 3.346l.264-.053c-.141-1.897-.229-3.794-.264-5.691-.035-1.897-.052-3.794-.052-5.691v-8.538c.386-.105.975-.21 1.765-.316.791-.105 1.572-.158 2.345-.158 1.546 0 2.722.273 3.531.817.808.545 1.212 1.678 1.212 3.399v27.087z"/><path d="M244.072 9.077c-.246-.386-.474-.913-.685-1.581-.211-.667-.316-1.37-.316-2.108 0-1.37.307-2.353.922-2.951.614-.597 1.414-.896 2.398-.896h22.976c.246.387.475.914.685 1.581.211.668.317 1.37.317 2.108 0 1.37-.309 2.354-.923 2.951-.615.598-1.414.896-2.398.896h-5.849v24.347c-.387.105-.993.21-1.818.316-.826.105-1.643.158-2.451.158s-1.52-.062-2.134-.185c-.615-.122-1.133-.342-1.555-.658-.421-.317-.737-.755-.948-1.318-.211-.561-.316-1.299-.316-2.213v-20.447h-7.905z"/><path d="M283.49 20.934c-1.547-.527-2.951-1.062-4.216-1.607-1.265-.545-2.354-1.203-3.267-1.976-.914-.773-1.626-1.695-2.135-2.767-.509-1.072-.764-2.38-.764-3.926 0-2.986 1.151-5.375 3.452-7.167 2.301-1.792 5.524-2.688 9.67-2.688 1.51 0 2.916.105 4.216.316 1.299.211 2.415.536 3.346.975.931.44 1.66 1.001 2.187 1.687.527.685.791 1.484.791 2.397 0 .914-.211 1.696-.632 2.346-.422.65-.932 1.203-1.529 1.66-.773-.492-1.81-.923-3.109-1.292-1.3-.368-2.723-.553-4.269-.553-1.58 0-2.74.22-3.478.659-.737.44-1.106.993-1.106 1.66 0 .527.228.958.685 1.291.456.334 1.141.641 2.055.922l2.793.896c3.302 1.054 5.84 2.398 7.615 4.031 1.774 1.634 2.661 3.856 2.661 6.667 0 2.986-1.177 5.401-3.531 7.246-2.354 1.844-5.814 2.767-10.381 2.767-1.616 0-3.119-.132-4.506-.396-1.388-.263-2.6-.649-3.636-1.159-1.037-.509-1.844-1.141-2.424-1.897-.58-.755-.87-1.625-.87-2.609 0-1.018.299-1.888.896-2.608.597-.72 1.247-1.273 1.95-1.661.983.774 2.187 1.441 3.61 2.003 1.423.563 2.977.843 4.664.843 1.72 0 2.933-.263 3.636-.79.702-.527 1.054-1.142 1.054-1.845 0-.702-.282-1.238-.843-1.607-.563-.369-1.353-.729-2.372-1.08l-2.213-.738z"/></g></svg>